HIERARCHY
ROOT hip
{
  OFFSET 0 0 0
  CHANNELS 6 Xposition Yposition Zposition Zrotation Yrotation Xrotation
  JOINT abdomen
  {
    OFFSET 0 20.6881 -0.73152
    CHANNELS 3 Zrotation Xrotation Yrotation
    JOINT chest
    {
      OFFSET 0 11.7043 -0.48768
      CHANNELS 3 Zrotation Xrotation Yrotation
      JOINT neck
      {
        OFFSET 0 22.1894 -2.19456
        CHANNELS 3 Zrotation Xrotation Yrotation
        JOINT head
        {
          OFFSET -0.24384 7.07133 1.2192
          CHANNELS 3 Zrotation Xrotation Yrotation
          JOINT leftEye
          {
            OFFSET 4.14528 8.04674 8.04672
            CHANNELS 3 Zrotation Xrotation Yrotation
            End Site
            {
              OFFSET 1 0 0
            }
          }
          JOINT rightEye
          {
            OFFSET -3.6576 8.04674 8.04672
            CHANNELS 3 Zrotation Xrotation Yrotation
            End Site
            {
              OFFSET 1 0 0
            }
          }
        }
      }
      JOINT rCollar
      {
        OFFSET -2.68224 19.2634 -4.8768
        CHANNELS 3 Zrotation Xrotation Yrotation
        JOINT rShldr
        {
          OFFSET -8.77824 -1.95073 1.46304
          CHANNELS 3 Zrotation Xrotation Yrotation
          JOINT rForeArm
          {
            OFFSET -28.1742 -1.7115 0.48768
            CHANNELS 3 Zrotation Xrotation Yrotation
            JOINT rHand
            {
              OFFSET -22.5879 0.773209 7.07136
              CHANNELS 3 Zrotation Xrotation Yrotation
              JOINT rThumb1
              {
                OFFSET -1.2192 -0.487915 3.41376
                CHANNELS 3 Zrotation Xrotation Yrotation
                JOINT rThumb2
                {
                  OFFSET -3.37035 -0.52449 3.41376
                  CHANNELS 3 Zrotation Xrotation Yrotation
                  End Site
                  {
                    OFFSET -1.78271 -1.18214 1.43049
                  }
                }
              }
              JOINT rIndex1
              {
                OFFSET -7.75947 0.938293 5.60832
                CHANNELS 3 Zrotation Xrotation Yrotation
                JOINT rIndex2
                {
                  OFFSET -2.54057 -0.884171 1.56538
                  CHANNELS 3 Zrotation Xrotation Yrotation
                  End Site
                  {
                    OFFSET -1.62519 -0.234802 1.16502
                  }
                }
              }
              JOINT rMid1
              {
                OFFSET -8.24714 1.18213 3.41376
                CHANNELS 3 Zrotation Xrotation Yrotation
                JOINT rMid2
                {
                  OFFSET -3.10165 -0.590103 1.0647
                  CHANNELS 3 Zrotation Xrotation Yrotation
                  End Site
                  {
                    OFFSET -2.48547 -0.328903 0.83742
                  }
                }
              }
              JOINT rRing1
              {
                OFFSET -8.82822 0.546677 1.51678
                CHANNELS 3 Zrotation Xrotation Yrotation
                JOINT rRing2
                {
                  OFFSET -2.60934 -0.819778 -0.0198488
                  CHANNELS 3 Zrotation Xrotation Yrotation
                  End Site
                  {
                    OFFSET -2.33842 -0.294052 0.168128
                  }
                }
              }
              JOINT rPinky1
              {
                OFFSET -8.27202 -0.0477905 -0.4584
                CHANNELS 3 Zrotation Xrotation Yrotation
                JOINT rPinky2
                {
                  OFFSET -1.82734 -0.647385 -0.700984
                  CHANNELS 3 Zrotation Xrotation Yrotation
                  End Site
                  {
                    OFFSET -1.69225 -0.51767 -0.607171
                  }
                }
              }
            }
          }
        }
      }
      JOINT lCollar
      {
        OFFSET 2.68224 19.2634 -4.8768
        CHANNELS 3 Zrotation Xrotation Yrotation
        JOINT lShldr
        {
          OFFSET 8.77824 -1.95073 1.46304
          CHANNELS 3 Zrotation Xrotation Yrotation
          JOINT lForeArm
          {
            OFFSET 28.1742 -1.7115 0.48768
            CHANNELS 3 Zrotation Xrotation Yrotation
            JOINT lHand
            {
              OFFSET 22.5879 0.773209 7.07136
              CHANNELS 3 Zrotation Xrotation Yrotation
              JOINT lThumb1
              {
                OFFSET 1.2192 -0.487915 3.41376
                CHANNELS 3 Zrotation Xrotation Yrotation
                JOINT lThumb2
                {
                  OFFSET 3.37035 -0.52449 3.41376
                  CHANNELS 3 Zrotation Xrotation Yrotation
                  End Site
                  {
                    OFFSET 1.78271 -1.18214 1.43049
                  }
                }
              }
              JOINT lIndex1
              {
                OFFSET 7.75947 0.938293 5.60832
                CHANNELS 3 Zrotation Xrotation Yrotation
                JOINT lIndex2
                {
                  OFFSET 2.54057 -0.884171 1.56538
                  CHANNELS 3 Zrotation Xrotation Yrotation
                  End Site
                  {
                    OFFSET 1.62519 -0.234802 1.16502
                  }
                }
              }
              JOINT lMid1
              {
                OFFSET 8.24714 1.18213 3.41376
                CHANNELS 3 Zrotation Xrotation Yrotation
                JOINT lMid2
                {
                  OFFSET 3.10165 -0.590103 1.0647
                  CHANNELS 3 Zrotation Xrotation Yrotation
                  End Site
                  {
                    OFFSET 2.48547 -0.328903 0.83742
                  }
                }
              }
              JOINT lRing1
              {
                OFFSET 8.82822 0.546677 1.51678
                CHANNELS 3 Zrotation Xrotation Yrotation
                JOINT lRing2
                {
                  OFFSET 2.60934 -0.819778 -0.0198488
                  CHANNELS 3 Zrotation Xrotation Yrotation
                  End Site
                  {
                    OFFSET 2.33842 -0.294052 0.168128
                  }
                }
              }
              JOINT lPinky1
              {
                OFFSET 8.27202 -0.0477905 -0.4584
                CHANNELS 3 Zrotation Xrotation Yrotation
                JOINT lPinky2
                {
                  OFFSET 1.82734 -0.647385 -0.700984
                  CHANNELS 3 Zrotation Xrotation Yrotation
                  End Site
                  {
                    OFFSET 1.69225 -0.51767 -0.607171
                  }
                }
              }
            }
          }
        }
      }
    }
  }
  JOINT rButtock
  {
    OFFSET -8.77824 4.35084 1.2192
    CHANNELS 3 Zrotation Xrotation Yrotation
    JOINT rThigh
    {
      OFFSET 0 -1.70687 -2.19456
      CHANNELS 3 Zrotation Xrotation Yrotation
      JOINT rShin
      {
        OFFSET 0 -36.8199 0.73152
        CHANNELS 3 Zrotation Xrotation Yrotation
        JOINT rFoot
        {
          OFFSET 0.73152 -45.1104 -5.12064
          CHANNELS 3 Zrotation Xrotation Yrotation
          End Site
          {
            OFFSET -1.1221 -3.69964 12.103
          }
        }
      }
    }
  }
  JOINT lButtock
  {
    OFFSET 8.77824 4.35084 1.2192
    CHANNELS 3 Zrotation Xrotation Yrotation
    JOINT lThigh
    {
      OFFSET 0 -1.70687 -2.19456
      CHANNELS 3 Zrotation Xrotation Yrotation
      JOINT lShin
      {
        OFFSET 0 -36.8199 0.73152
        CHANNELS 3 Zrotation Xrotation Yrotation
        JOINT lFoot
        {
          OFFSET -0.73152 -45.1104 -5.12064
          CHANNELS 3 Zrotation Xrotation Yrotation
          End Site
          {
            OFFSET 1.1221 -3.69964 12.103
          }
        }
      }
    }
  }
}
MOTION
Frames:	8
Frame Time:	0.00833333
6.26298 80.4066 -17.7395 -0.0 -0.0 -0.0 -0.0 -0.0 -0.0 0.0 0.0 -0.0 -6.906697 5.093511 -50.165498 8.325947 2.056425 50.323376 -0.0 0.0 -0.0 -0.0 0.0 -0.0 -155.504155 -3.514523 161.838528 -77.5647 69.065047 98.229309 -161.958107 -0.410559 156.482578 87.45434 -70.754334 72.058039 -78.030619 38.689342 42.41267 168.686713 -49.549356 73.413282 174.382035 -63.05997 113.272685 -155.157605 -20.996858 110.745105 -36.036059 51.723116 29.832321 -167.446161 -15.392401 146.812852 -145.118942 0.185529 -179.186624 -45.330777 87.634708 68.87754 -1.203484 -3.047547 -1.116064 0.22245 0.401414 0.268209 159.220516 -48.028485 -170.415257 -2.863803 15.761291 -22.442298 174.497398 75.611931 -177.588277 4.068627 12.939857 -0.016734 -55.518315 -43.150421 -15.432212 128.003774 19.032399 -101.175618 100.824001 37.73392 -85.162146 -27.39194 -46.100327 13.494953 89.835461 60.702148 -81.262754 86.870569 67.073793 -79.032266 75.673382 -72.116249 92.828895 12.089449 60.605744 -30.696066 -5.051562 14.842303 -4.55585 -12.636068 42.184467 -7.546752 -180.0 75.749642 -0.0 -180.0 75.749642 -0.0 3.819913 0.604099 34.22701 -65.382705 26.215721 4.621567 -180.0 75.749642 -0.0 -180.0 75.749642 -0.0 2.029982 12.329736 145.110086 94.068378 56.51173 177.031843
5.11685 80.2158 -18.1604 -0.0 -0.0 -0.0 -0.0 -0.0 -0.0 0.0 0.0 -0.0 -0.352604 0.077114 -2.052654 0.35514 -0.064434 2.053091 0.0 -0.0 -0.0 0.0 -0.0 -0.0 -143.620413 38.233348 148.080496 93.700912 -84.665221 68.042651 86.361339 -79.127366 80.792895 -16.485969 43.610725 5.043951 -7.758532 7.439094 1.682075 -102.598389 5.87837 93.824347 24.075919 -42.306446 -5.558499 4.828719 4.037754 6.092448 153.671271 -76.484326 121.219909 -163.086048 -5.65439 140.215606 -77.742735 72.902851 95.870145 -159.988144 2.388629 -173.527402 -126.797849 -26.619602 -124.512652 -157.9833 58.824989 -150.296611 80.1661 68.371792 -83.260848 -16.89865 15.899113 0.048397 8.082712 9.707635 25.686646 -139.772246 -60.371683 -121.18212 171.653675 -9.336187 -89.949478 -144.662246 -47.332015 -97.692638 108.427673 34.160977 -91.742903 154.237377 3.916316 -123.890901 39.289155 53.36602 -32.877985 8.715465 29.922457 -4.286341 145.119465 0.267731 179.212447 135.222921 -49.565312 167.853479 43.363118 -47.546704 42.161842 -1.490736 -2.87044 -0.764532 -180.0 75.749642 -0.0 -180.0 75.749642 -0.0 3.093813 0.300867 27.366401 -177.517899 -38.148311 39.844119 -180.0 75.749642 -0.0 -180.0 75.749642 -0.0 2.74577 11.919568 137.880989 -129.992023 -15.548031 140.781608
3.96137 80.1316 -18.5692 -0.0 -0.0 -0.0 -0.0 -0.0 -0.0 0.0 0.0 -0.0 -7.839959 7.474454 -64.637578 10.095103 3.902534 64.805654 0.0 0.0 0.0 0.0 0.0 0.0 -143.620413 38.233348 148.080496 -153.748773 -14.787283 171.174154 3.836905 19.423899 0.627385 -4.291103 13.630208 0.044223 51.059793 -41.203951 12.856726 -145.047747 -14.879968 122.640613 -153.453439 -21.067684 121.744506 166.898913 -64.458613 96.495015 23.903801 -61.333833 1.399383 -46.238546 56.195343 39.256172 0.000171 0.022644 0.007114 -166.890972 -27.535795 175.005281 -150.577948 31.033784 -146.363897 -8.130933 -23.395186 -13.026876 80.1661 68.371792 -83.260848 -16.926784 14.142456 0.162407 -100.342487 80.006959 129.157281 179.292837 14.670117 -145.142504 5.433768 5.264911 -1.077842 129.66024 -28.082074 -112.831029 -37.215945 -57.917763 0.643014 -4.817529 8.911279 -7.29843 151.476684 17.84174 -137.538824 -149.460009 -75.668111 -114.924903 0.000473 -0.060845 0.019116 165.714866 -0.7627 -171.859317 -15.297089 53.352629 -12.045761 27.929617 -39.63872 27.248396 -180.0 75.749642 -0.0 -180.0 75.749642 -0.0 2.512346 0.127625 22.075435 51.774727 -31.627549 -26.452138 -180.0 75.749642 -0.0 -180.0 75.749642 -0.0 5.634217 7.031168 86.353135 -5.046742 -26.781648 -95.938589
2.82883 80.02 -18.9749 -0.0 -0.0 -0.0 -0.0 -0.0 -0.0 0.0 0.0 -0.0 -7.839959 7.474454 -64.637578 10.095103 3.902534 64.805654 0.0 0.0 0.0 0.0 0.0 0.0 -143.620413 38.233348 148.080496 -153.748773 -14.787283 171.174154 177.371329 -25.231932 142.14444 174.373203 -5.401009 144.967919 -171.706035 -9.388422 89.948992 11.772091 -59.715975 13.813325 -28.901256 31.616227 21.337761 125.339284 -66.810616 78.994129 -160.992874 -7.659212 143.392556 -7.892545 32.513031 9.110013 0.004875 1.770451 0.556181 -165.841061 -0.52356 172.176722 -144.260424 9.237701 -141.009589 -162.291303 61.740891 -146.422965 80.1661 68.371792 -83.260848 -16.926784 14.142456 0.162407 -165.699296 6.060187 -170.269519 74.834018 73.821528 -56.285077 -27.451228 -26.099095 -2.267476 147.688219 -60.574835 -137.684187 -60.461659 -70.523647 -15.71111 166.04683 -23.773711 -103.999893 -2.100045 -6.305437 1.081362 -4.253136 -12.809937 0.855655 69.013251 72.941357 -86.71928 164.858252 28.5022 175.917162 48.628323 -49.12444 47.366889 20.163001 -39.847128 20.375162 -180.0 75.749642 -0.0 -180.0 75.749642 -0.0 2.512346 0.127625 22.075435 51.774727 -31.627549 -26.452138 -180.0 75.749642 -0.0 -180.0 75.749642 -0.0 5.634217 7.031168 86.353135 -5.046742 -26.781648 -95.938589
1.66207 79.9271 -19.3315 -0.0 -0.0 -0.0 -0.0 -0.0 -0.0 0.0 0.0 -0.0 -7.839959 7.474454 -64.637578 10.095103 3.902534 64.805654 0.0 0.0 0.0 0.0 0.0 0.0 -143.620413 38.233348 148.080496 -155.393326 -26.092474 171.292274 178.071922 -13.607826 143.398426 174.291378 -5.656867 144.951264 85.58426 -50.525486 35.246446 -33.283224 6.874132 -7.178692 -155.193415 -24.299992 122.142835 -65.009272 57.588991 58.873509 78.537123 -80.919176 49.688177 -13.87538 32.702949 12.940594 -77.742735 72.902851 95.870145 -159.925798 2.055896 -173.487362 -23.552243 -36.485804 -22.651099 -81.340205 -55.921371 -79.962668 80.1661 68.371792 -83.260848 -16.89865 15.899113 0.048397 -19.858945 71.558163 49.424518 -175.379497 -2.227814 -145.143646 9.972516 9.455054 -2.332891 14.414635 13.065253 -17.713683 108.427673 34.160977 -91.742903 87.406451 62.704571 -68.188374 161.153703 -8.160616 -143.465095 126.281845 51.4386 -118.582811 72.757246 -72.143382 89.772159 149.682187 5.902963 -165.162593 77.071637 -51.585313 75.529817 -2.450829 -3.108032 -0.555238 -180.0 75.749642 -0.0 -180.0 75.749642 -0.0 3.819913 0.604099 34.22701 84.887662 -57.367749 -14.838107 -180.0 75.749642 -0.0 -180.0 75.749642 -0.0 2.029982 12.329736 145.110086 94.068378 56.51173 177.031843
0.372453 79.9296 -19.607 -0.0 -0.0 -0.0 -0.0 -0.0 -0.0 0.0 0.0 -0.0 -7.917089 7.803005 -66.545917 10.291728 4.17698 66.710394 0.0 0.0 0.0 0.0 0.0 0.0 -143.620413 38.233348 148.080496 93.700912 -84.665221 68.042651 157.081081 -42.982686 148.623255 -91.37751 74.49663 72.060048 4.53085 -4.514112 -0.520964 -6.970634 7.219079 3.004247 159.641557 -69.973343 102.396332 -12.326111 35.230107 17.089571 -158.521826 -0.192208 142.144949 -39.599152 58.903495 36.798948 -0.000473 -0.060845 -0.019116 -0.058238 0.863455 0.120526 26.973563 80.122588 10.137824 -158.431102 38.738645 -144.440726 80.1661 68.371792 -83.260848 145.631406 75.541837 -165.573677 -179.617051 34.991863 178.824547 7.617842 23.474383 -0.768323 121.36458 30.329582 -71.957921 -24.375278 -38.281447 -26.850506 155.193415 -24.299992 -122.142835 73.54321 56.908198 -66.60269 160.826363 -7.141801 -143.31627 -6.495094 -0.108756 -0.299863 132.481743 54.102976 -155.533585 -11.725315 -0.495038 15.765636 36.740552 -44.885008 35.623497 85.661561 -55.498967 84.867122 -180.0 75.749642 -0.0 -180.0 75.749642 -0.0 3.819913 0.604099 34.22701 84.887662 -57.367749 -14.838107 -180.0 75.749642 -0.0 -180.0 75.749642 -0.0 2.029982 12.329736 145.110086 94.068378 56.51173 177.031843
-0.941797 79.9558 -19.8222 -0.0 -0.0 -0.0 -0.0 -0.0 -0.0 0.0 0.0 -0.0 -7.839959 7.474454 -64.637578 10.095103 3.902534 64.805654 0.0 -0.0 -0.0 0.0 -0.0 -0.0 -143.620413 38.233348 148.080496 93.700912 -84.665221 68.042651 157.081081 -42.982686 148.623255 -91.37751 74.49663 72.060048 -67.034201 37.762539 34.644204 -126.727755 -22.226179 84.681399 -145.08624 -5.825787 118.554615 97.802947 -73.326759 36.311785 -160.673322 -6.667841 143.245105 -15.375183 42.596303 15.123545 -0.000473 -0.060845 -0.019116 -2.168441 21.511091 3.16832 -79.858865 -51.344402 -78.29011 2.676748 -2.678143 0.665163 80.1661 68.371792 -83.260848 -16.926784 14.142456 0.162407 -116.476664 78.256116 145.121741 178.194028 18.000434 -144.947467 48.27133 33.24012 -21.925298 138.618421 -33.990156 -93.089853 145.338335 -6.264511 -118.677783 158.410886 -30.746811 -122.053014 36.036059 51.723116 -29.832321 147.465599 38.697934 -134.391172 145.119466 0.267753 179.212454 133.910663 -52.280411 166.478417 150.032855 28.966435 145.934982 83.559112 -51.240899 84.942178 -180.0 75.749642 -0.0 -180.0 75.749642 -0.0 2.512346 0.127625 22.075435 51.774727 -31.627549 -26.452138 -180.0 75.749642 -0.0 -180.0 75.749642 -0.0 5.634217 7.031168 86.353135 -5.046742 -26.781648 -95.938589
-2.1753 79.9793 -20.0054 -0.0 -0.0 -0.0 -0.0 -0.0 -0.0 0.0 0.0 -0.0 -7.839959 7.474454 -64.637578 10.095103 3.902534 64.805654 0.0 0.0 0.0 0.0 0.0 0.0 -143.620413 38.233348 148.080496 93.700912 -84.665221 68.042651 157.081081 -42.982686 148.623255 -91.37751 74.49663 72.060048 4.53085 -4.514112 -0.520964 -6.970634 7.219079 3.004247 159.641557 -69.973343 102.396332 -12.326111 35.230107 17.089571 -158.521826 -0.192208 142.144949 -39.599152 58.903495 36.798948 -0.000473 -0.060845 -0.019116 -0.058238 0.863455 0.120526 26.973563 80.122588 10.137824 -158.431102 38.738645 -144.440726 80.1661 68.371792 -83.260848 145.631406 75.541837 -165.573677 -179.617051 34.991863 178.824547 7.617842 23.474383 -0.768323 121.36458 30.329582 -71.957921 -24.375278 -38.281447 -26.850506 155.193415 -24.299992 -122.142835 73.54321 56.908198 -66.60269 160.826363 -7.141801 -143.31627 -6.495094 -0.108756 -0.299863 132.481743 54.102976 -155.533585 -11.725315 -0.495038 15.765636 36.740552 -44.885008 35.623497 85.661561 -55.498967 84.867122 -180.0 75.749642 -0.0 -180.0 75.749642 -0.0 3.819913 0.604099 34.22701 84.887662 -57.367749 -14.838107 -180.0 75.749642 -0.0 -180.0 75.749642 -0.0 2.029982 12.329736 145.110086 94.068378 56.51173 177.031843
